<?xml version="1.0" standalone="no"?><!DOCTYPE svg PUBLIC "-//W3C//DTD SVG 1.1//EN" "http://www.w3.org/Graphics/SVG/1.1/DTD/svg11.dtd"><svg t="1500263668313" class="icon" style="" viewBox="0 0 1024 1024" version="1.1" xmlns="http://www.w3.org/2000/svg" p-id="2194" xmlns:xlink="http://www.w3.org/1999/xlink" width="200" height="200"><defs><style type="text/css"></style></defs><path d="M595.2 959.808c-8.192 0-16.384-3.136-22.656-9.344-12.48-12.48-12.48-32.768 0-45.248l194.176-194.176c6.016-6.016 14.144-9.344 22.656-9.344l83.2 0c12.928 0 23.424-10.56 23.424-23.488L896 234.432c0-12.992-10.496-23.488-23.424-23.488L151.488 210.944C138.56 210.88 128 221.44 128 234.432l0 443.776c0 12.928 10.56 23.488 23.488 23.488l388.224 0c17.664 0 32 14.336 32 32s-14.336 32-32 32L151.488 765.696C103.232 765.632 64 726.4 64 678.144L64 234.432c0-48.256 39.232-87.488 87.488-87.488l721.088 0C920.768 146.88 960 186.176 960 234.432l0 443.776c0 48.192-39.232 87.488-87.424 87.488l-69.952 0L617.792 950.4C611.584 956.672 603.392 959.808 595.2 959.808z" p-id="2195"></path><path d="M514.688 451.776m-48 0a0.75 0.75 0 1 0 96 0 0.75 0.75 0 1 0-96 0Z" p-id="2196"></path><path d="M706.688 451.776m-48 0a0.75 0.75 0 1 0 96 0 0.75 0.75 0 1 0-96 0Z" p-id="2197"></path><path d="M317.376 451.776m-48 0a0.75 0.75 0 1 0 96 0 0.75 0.75 0 1 0-96 0Z" p-id="2198"></path></svg>