<?xml version="1.0" standalone="no"?><!DOCTYPE svg PUBLIC "-//W3C//DTD SVG 1.1//EN" "http://www.w3.org/Graphics/SVG/1.1/DTD/svg11.dtd"><svg t="1500278046776" class="icon" style="" viewBox="0 0 1024 1024" version="1.1" xmlns="http://www.w3.org/2000/svg" p-id="2473" xmlns:xlink="http://www.w3.org/1999/xlink" width="200" height="200"><defs><style type="text/css"></style></defs><path d="M534.111297 289.944197 534.111297 289.944197c12.349205 12.352854 12.429481 32.293055 0.18123 44.547387L131.669287 737.108743c-12.248251 12.253116-32.194534 12.17284-44.542522-0.180014l0 0c-12.352854-12.349205-12.43313-32.289406-0.180014-44.542522l402.617159-402.618375C501.818242 277.514716 521.758443 277.594992 534.111297 289.944197L534.111297 289.944197zM534.111297 289.944197M936.873197 735.916759 936.873197 735.916759c-12.347988 12.352854-32.289406 12.428265-44.542522 0.180014L489.711083 333.479614c-12.253116-12.254333-12.171623-32.194534 0.176365-44.547387l0 0c12.352854-12.349205 32.294271-12.429481 44.547387-0.176365l402.618375 402.618375C949.307543 703.622487 949.224834 723.567554 936.873197 735.916759L936.873197 735.916759zM936.873197 735.916759" p-id="2474"></path></svg>